<?xml version="1.0" standalone="no"?>
<svg viewBox="0 0 200 200" xmlns="http://www.w3.org/2000/svg">
  <path fill="#0F62FE" d="M45.6,-78.8C59.2,-71.2,70.4,-59.1,77.2,-45.3C84.1,-31.4,86.7,-15.7,86.2,-0.3C85.7,15.1,82.2,30.3,75.6,44.6C69,58.9,59.2,72.3,46.1,81.2C33,90.2,16.5,94.6,0.4,93.9C-15.7,93.3,-31.5,87.5,-45.3,79C-59.1,70.5,-70.9,59.1,-79.4,45.5C-87.8,31.9,-92.8,15.9,-93,-0.1C-93.1,-16.1,-88.4,-32.2,-80.2,-46.2C-71.9,-60.2,-60.3,-72.2,-46.3,-79.6C-32.4,-87.1,-16.2,-90.1,-0.1,-90C16,-89.8,32,-86.5,45.6,-78.8Z" transform="translate(100 100)" />
</svg>
