<?xml version="1.0" standalone="no"?>
<svg viewBox="0 0 200 200" xmlns="http://www.w3.org/2000/svg">
  <path fill="#0F62FE" d="M32.8,-62.7C40.3,-52.6,42.4,-39.2,51.3,-28.2C60.2,-17.2,75.9,-8.6,74.4,-0.9C72.9,6.9,54.3,13.7,45.2,24.3C36,34.9,36.3,49.2,30.4,52.6C24.4,55.9,12.2,48.3,0,48.3C-12.1,48.2,-24.3,55.7,-36,55.6C-47.6,55.5,-58.8,48,-62.9,37.5C-67,26.9,-64,13.5,-64.2,-0.2C-64.5,-13.8,-68,-27.5,-61.6,-34C-55.2,-40.5,-38.9,-39.8,-27,-47.3C-15,-54.8,-7.5,-70.6,2.6,-75.1C12.7,-79.6,25.4,-72.8,32.8,-62.7Z" transform="translate(100 100)" />
</svg>
